<?xml version="1.0" encoding="utf-8"?>
<svg version="1.1" xmlns:xlink="http://www.w3.org/1999/xlink" width="75px" height="75px" xmlns="http://www.w3.org/2000/svg">
  <g transform="matrix(1 0 0 1 -241 -315 )">
    <path d="M 61.81640625 31.787109375  C 62.40234375 31.201171875  62.6953125 30.46875  62.6953125 29.58984375  C 62.6953125 28.6783854166667  62.40234375 27.9296875  61.81640625 27.34375  L 57.373046875 22.94921875  C 56.7545572916667 22.3307291666667  56.0221354166667 22.021484375  55.17578125 22.021484375  C 54.3294270833333 22.021484375  53.5970052083333 22.3307291666667  52.978515625 22.94921875  L 33.056640625 42.822265625  L 22.021484375 31.787109375  C 21.4029947916667 31.1686197916667  20.6705729166667 30.859375  19.82421875 30.859375  C 18.9778645833333 30.859375  18.2454427083333 31.1686197916667  17.626953125 31.787109375  L 13.18359375 36.181640625  C 12.59765625 36.767578125  12.3046875 37.5162760416667  12.3046875 38.427734375  C 12.3046875 39.306640625  12.59765625 40.0390625  13.18359375 40.625  L 30.859375 58.30078125  C 31.4778645833333 58.9192708333333  32.2102864583333 59.228515625  33.056640625 59.228515625  C 33.935546875 59.228515625  34.6842447916667 58.9192708333333  35.302734375 58.30078125  L 61.81640625 31.787109375  Z M 69.970703125 18.6767578125  C 73.3235677083333 24.4222005208333  75 30.6966145833333  75 37.5  C 75 44.3033854166667  73.3235677083333 50.5777994791667  69.970703125 56.3232421875  C 66.6178385416667 62.0686848958333  62.0686848958333 66.6178385416667  56.3232421875 69.970703125  C 50.5777994791667 73.3235677083333  44.3033854166667 75  37.5 75  C 30.6966145833333 75  24.4222005208333 73.3235677083333  18.6767578125 69.970703125  C 12.9313151041667 66.6178385416667  8.38216145833333 62.0686848958333  5.029296875 56.3232421875  C 1.67643229166667 50.5777994791667  0 44.3033854166667  0 37.5  C 0 30.6966145833333  1.67643229166667 24.4222005208333  5.029296875 18.6767578125  C 8.38216145833333 12.9313151041667  12.9313151041667 8.38216145833333  18.6767578125 5.029296875  C 24.4222005208333 1.67643229166666  30.6966145833333 0  37.5 0  C 44.3033854166667 0  50.5777994791667 1.67643229166666  56.3232421875 5.029296875  C 62.0686848958333 8.38216145833333  66.6178385416667 12.9313151041667  69.970703125 18.6767578125  Z " fill-rule="nonzero" fill="#95f204" stroke="none" transform="matrix(1 0 0 1 241 315 )" />
  </g>
</svg>