<?xml version="1.0" encoding="utf-8"?>
<svg version="1.1" xmlns:xlink="http://www.w3.org/1999/xlink" width="12px" height="12px" viewBox="518 367.5  12 12" xmlns="http://www.w3.org/2000/svg">
  <path d="M 524 367.5  C 527.36 367.5  530 370.14  530 373.5  C 530 376.86  527.36 379.5  524 379.5  C 520.64 379.5  518 376.86  518 373.5  C 518 370.14  520.64 367.5  524 367.5  Z " fill-rule="nonzero" fill="#ffffff" stroke="none" />
  <path d="M 524 368  C 527.08 368  529.5 370.42  529.5 373.5  C 529.5 376.58  527.08 379  524 379  C 520.92 379  518.5 376.58  518.5 373.5  C 518.5 370.42  520.92 368  524 368  Z " stroke-width="1" stroke="#797979" fill="none" />
  <path d="M 524 376.5  C 522.32 376.5  521 375.18  521 373.5  C 521 371.82  522.32 370.5  524 370.5  C 525.68 370.5  527 371.82  527 373.5  C 527 375.18  525.68 376.5  524 376.5  " fill-rule="nonzero" fill="#797979" stroke="none" />
</svg>