<?xml version="1.0" encoding="utf-8"?>
<svg version="1.1" xmlns:xlink="http://www.w3.org/1999/xlink" width="25px" height="25px" xmlns="http://www.w3.org/2000/svg">
  <g transform="matrix(1 0 0 1 -406 -342 )">
    <path d="M 0 17.7455357142857  C 0 15.1878720238095  1.19589977220957 13.0208333333333  3.5876993166287 11.2444196428571  C 3.51176917236143 11.0677083333333  3.47380410022779 10.8258928571429  3.47380410022779 10.5189732142857  C 3.47380410022779 10.3329613095238  3.52600607441154 10.1050967261905  3.63041002277904 9.83537946428572  C 3.73481397114655 9.56566220238095  3.84870918754746 9.35639880952381  3.97209567198178 9.20758928571428  C 3.96260440394837 9.00297619047619  3.99819665907365 8.75651041666667  4.07887243735763 8.46819196428572  C 4.15954821564161 8.17987351190476  4.26632498101746 7.97991071428572  4.39920273348519 7.86830357142857  C 4.39920273348519 6.57552083333333  4.83817388003037 5.23390997023809  5.71611617312073 3.84347098214286  C 6.59405846621109 2.45303199404762  7.62623386484434 1.47879464285714  8.8126423690205 0.920758928571427  C 10.1319286256644 0.306919642857142  11.6695140470767 0  13.4253986332574 0  C 14.6877372817008 0  15.9500759301443 0.255766369047622  17.2124145785877 0.767299107142858  C 17.6774867122248 0.962611607142858  18.1045937737282 1.18582589285714  18.4937357630979 1.43694196428572  C 18.8828777524677 1.68805803571428  19.2198177676538 1.94847470238095  19.504555808656 2.21819196428572  C 19.7892938496583 2.48790922619047  20.0503037205771 2.80412946428572  20.2875854214123 3.16685267857143  C 20.5248671222475 3.52957589285714  20.7241837509491 3.87369791666667  20.8855353075171 4.19921875  C 21.046886864085 4.52473958333333  21.2011199696279 4.91768973214286  21.3482346241458 5.37806919642857  C 21.4953492786636 5.83844866071428  21.6163629460896 6.25465029761905  21.7112756264237 6.62667410714286  C 21.8061883067578 6.99869791666667  21.9105922551253 7.45442708333333  22.0244874715262 7.99386160714286  L 22.0387243735763 8.06361607142857  C 22.5607441154138 8.83556547619047  22.8217539863326 9.53311011904762  22.8217539863326 10.15625  C 22.8217539863326 10.2864583333333  22.7790432801822 10.4724702380952  22.6936218678816 10.7142857142857  C 22.6082004555809 10.9561011904762  22.5654897494305 11.1328125  22.5654897494305 11.2444196428571  C 22.5654897494305 11.2537202380952  22.5726082004556 11.2699962797619  22.5868451025057 11.2932477678571  C 22.6010820045558 11.3164992559524  22.6176917236143 11.3397507440476  22.6366742596811 11.3630022321429  C 22.6556567957479 11.3862537202381  22.6651480637813 11.4025297619048  22.6651480637813 11.4118303571429  C 23.3959757023538 12.4720982142857  23.9678246013667 13.4695870535714  24.38069476082 14.404296875  C 24.7935649202733 15.3390066964286  25 16.30859375  25 17.3130580357143  C 25 17.7129836309524  24.9074601366743 18.1780133928571  24.7223804100228 18.7081473214286  C 24.5373006833713 19.23828125  24.2739179954442 19.5033482142857  23.9322323462415 19.5033482142857  C 23.8468109339408 19.5033482142857  23.754271070615 19.4684709821429  23.6546127562642 19.3987165178571  C 23.5549544419134 19.3289620535714  23.4647873955961 19.2475818452381  23.3841116173121 19.1545758928571  C 23.3034358390281 19.0615699404762  23.2132687927107 18.940662202381  23.1136104783599 18.7918526785714  C 23.0139521640091 18.6430431547619  22.9380220197418 18.5198102678571  22.8858200455581 18.4221540178571  C 22.8336180713743 18.3244977678571  22.7695520121488 18.2035900297619  22.6936218678816 18.0594308035714  C 22.6176917236143 17.915271577381  22.5749810174639 17.8338913690476  22.5654897494305 17.8152901785714  C 22.5559984813971 17.8059895833333  22.541761579347 17.8013392857143  22.5227790432802 17.8013392857143  L 22.4515945330296 17.8571428571429  C 21.8916097190585 19.2894345238095  21.2651860288535 20.3264508928571  20.5723234624146 20.9681919642857  C 20.7621488230828 21.1542038690476  21.0540053151101 21.333240327381  21.4478929384966 21.5053013392857  C 21.8417805618831 21.6773623511905  22.1692293090357 21.870349702381  22.4302391799544 22.0842633928571  C 22.6912490508732 22.2981770833333  22.8597190584662 22.6004464285714  22.9356492027335 22.9910714285714  C 22.9166666666667 23.0282738095238  22.8976841305998 23.1026785714286  22.878701594533 23.2142857142857  C 22.8597190584662 23.3258928571429  22.8264996203493 23.4095982142857  22.7790432801822 23.4654017857143  C 22.171602126044 24.3675595238095  20.7384206529992 24.8186383928571  18.4794988610478 24.8186383928571  C 17.9764616552771 24.8186383928571  17.4520690964313 24.7767857142857  16.9063211845103 24.6930803571429  C 16.3605732725892 24.609375  15.8955011389522 24.5163690476191  15.5111047835991 24.4140625  C 15.126708428246 24.311755952381  14.6307896735004 24.1722470238095  14.0233485193622 23.9955357142857  C 13.880979498861 23.9490327380952  13.7718299164768 23.9164806547619  13.6958997722096 23.8978794642857  C 13.5630220197418 23.8606770833333  13.3447228549734 23.8397507440476  13.0410022779043 23.8351004464286  C 12.7372817008352 23.8304501488095  12.547456340167 23.823474702381  12.4715261958998 23.8141741071429  C 12.08238420653 24.2327008928571  11.4773158694002 24.5349702380952  10.6563211845103 24.7209821428571  C 9.83532649962035 24.906994047619  9.03568716780562 25  8.25740318906606 25  C 7.92520880789674 25  7.59776006074412 24.9930245535714  7.2750569476082 24.9790736607143  C 6.95235383447229 24.9651227678571  6.51100987091875 24.9232700892857  5.95102505694761 24.853515625  C 5.39104024297646 24.7837611607143  4.91173120728929 24.6884300595238  4.5130979498861 24.5675223214286  C 4.11446469248292 24.4466145833333  3.76091495823842 24.2606026785714  3.45244874715262 24.0094866071429  C 3.14398253606682 23.7583705357143  2.98974943052392 23.4607514880952  2.98974943052392 23.1166294642857  C 2.98974943052392 22.7446056547619  3.03720577069097 22.4679129464286  3.13211845102506 22.2865513392857  C 3.22703113135915 22.1051897321429  3.42160212604404 21.879650297619  3.71583143507973 21.6099330357143  C 3.82023538344723 21.5913318452381  4.01243356112377 21.5308779761905  4.29242596810934 21.4285714285714  C 4.57241837509491 21.3262648809524  4.80732725892179 21.2704613095238  4.99715261958998 21.2611607142857  C 5.03511769172361 21.2611607142857  5.10155656795748 21.2518601190476  5.19646924829157 21.2332589285714  C 5.21545178435839 21.2146577380952  5.2249430523918 21.196056547619  5.2249430523918 21.1774553571429  L 5.19646924829157 21.1356026785714  C 4.74088838268793 21.0332961309524  4.22835990888383 20.5426897321429  3.65888382687927 19.6637834821429  C 3.08940774487472 18.7848772321429  2.74297646165528 18.0571056547619  2.61958997722096 17.48046875  L 2.54840546697039 17.4386160714286  C 2.51044039483675 17.4386160714286  2.4534927866363 17.5316220238095  2.37756264236902 17.7176339285714  C 2.20671981776765 18.0989583333333  1.94808276385725 18.4454055059524  1.60165148063781 18.7569754464286  C 1.25522019741838 19.0685453869048  0.887433561123766 19.242931547619  0.498291571753986 19.2801339285714  L 0.484054669703872 19.2801339285714  C 0.446089597570235 19.2801339285714  0.417615793470007 19.2592075892857  0.398633257403189 19.2173549107143  C 0.379650721336371 19.1755022321429  0.355922551252847 19.1499255952381  0.32744874715262 19.140625  C 0.109149582384207 18.6383928571429  0 18.1733630952381  0 17.7455357142857  Z " fill-rule="nonzero" fill="#ec808d" stroke="none" transform="matrix(1 0 0 1 406 342 )" />
  </g>
</svg>