<?xml version="1.0" encoding="utf-8"?>
<svg version="1.1" xmlns:xlink="http://www.w3.org/1999/xlink" width="25px" height="18px" xmlns="http://www.w3.org/2000/svg">
  <g transform="matrix(1 0 0 1 -232 -345 )">
    <path d="M 6.77490234375 5.01258992805755  C 6.97835286458333 4.8363309352518  7.080078125 4.60071942446043  7.080078125 4.30575539568345  C 7.080078125 4.01079136690647  6.97835286458333 3.77338129496403  6.77490234375 3.59352517985611  C 6.57145182291667 3.4136690647482  6.30289713541667 3.32374100719424  5.96923828125 3.32374100719424  C 5.61930338541667 3.32374100719424  5.31005859375 3.41546762589928  5.04150390625 3.59892086330935  C 4.77294921875 3.78237410071942  4.638671875 4.01798561151079  4.638671875 4.30575539568345  C 4.638671875 4.5863309352518  4.77294921875 4.81834532374101  5.04150390625 5.00179856115108  C 5.31005859375 5.18525179856115  5.61930338541667 5.27697841726619  5.96923828125 5.27697841726619  C 6.30289713541667 5.27697841726619  6.57145182291667 5.18884892086331  6.77490234375 5.01258992805755  Z M 15.838623046875 10.3273381294964  C 16.046142578125 10.1690647482014  16.14990234375 9.98561151079137  16.14990234375 9.77697841726619  C 16.14990234375 9.57553956834532  16.046142578125 9.39568345323741  15.838623046875 9.23741007194245  C 15.631103515625 9.07913669064748  15.3645833333333 9  15.0390625 9  C 14.8193359375 9  14.617919921875 9.08093525179856  14.434814453125 9.24280575539568  C 14.251708984375 9.4046762589928  14.16015625 9.58273381294964  14.16015625 9.77697841726619  C 14.16015625 9.97841726618705  14.251708984375 10.160071942446  14.434814453125 10.3219424460432  C 14.617919921875 10.4838129496403  14.8193359375 10.5647482014388  15.0390625 10.5647482014388  C 15.3645833333333 10.5647482014388  15.631103515625 10.4856115107914  15.838623046875 10.3273381294964  Z M 12.969970703125 5.01258992805755  C 13.1693522135417 4.8363309352518  13.26904296875 4.60071942446043  13.26904296875 4.30575539568345  C 13.26904296875 4.01079136690647  13.1693522135417 3.77338129496403  12.969970703125 3.59352517985611  C 12.7705891927083 3.4136690647482  12.5040690104167 3.32374100719424  12.17041015625 3.32374100719424  C 11.8204752604167 3.32374100719424  11.51123046875 3.41546762589928  11.24267578125 3.59892086330935  C 10.97412109375 3.78237410071942  10.83984375 4.01798561151079  10.83984375 4.30575539568345  C 10.83984375 4.5863309352518  10.97412109375 4.81834532374101  11.24267578125 5.00179856115108  C 11.51123046875 5.18525179856115  11.8204752604167 5.27697841726619  12.17041015625 5.27697841726619  C 12.5040690104167 5.27697841726619  12.7705891927083 5.18884892086331  12.969970703125 5.01258992805755  Z M 20.703125 10.3273381294964  C 20.9147135416667 10.1690647482014  21.0205078125 9.98561151079137  21.0205078125 9.77697841726619  C 21.0205078125 9.57553956834532  20.9147135416667 9.39568345323741  20.703125 9.23741007194245  C 20.4915364583333 9.07913669064748  20.22705078125 9  19.90966796875 9  C 19.68994140625 9  19.488525390625 9.08093525179856  19.305419921875 9.24280575539568  C 19.122314453125 9.4046762589928  19.03076171875 9.58273381294964  19.03076171875 9.77697841726619  C 19.03076171875 9.97841726618705  19.122314453125 10.160071942446  19.305419921875 10.3219424460432  C 19.488525390625 10.4838129496403  19.68994140625 10.5647482014388  19.90966796875 10.5647482014388  C 20.22705078125 10.5647482014388  20.4915364583333 10.4856115107914  20.703125 10.3273381294964  Z M 16.107177734375 2.68165467625899  C 16.9657389322917 3.51978417266187  17.5211588541667 4.4568345323741  17.7734375 5.49280575539568  C 17.5211588541667 5.46402877697842  17.236328125 5.44964028776978  16.9189453125 5.44964028776978  C 15.5436197916667 5.44964028776978  14.2781575520833 5.72661870503597  13.12255859375 6.28057553956835  C 11.9669596354167 6.83453237410072  11.0575358072917 7.58453237410072  10.394287109375 8.53057553956835  C 9.73103841145833 9.47661870503597  9.3994140625 10.5107913669065  9.3994140625 11.6330935251799  C 9.3994140625 12.1942446043165  9.49300130208333 12.7410071942446  9.68017578125 13.273381294964  C 9.39534505208333 13.294964028777  9.11865234375 13.3057553956835  8.85009765625 13.3057553956835  C 8.63850911458333 13.3057553956835  8.43505859375 13.3003597122302  8.23974609375 13.2895683453237  C 8.04443359375 13.2787769784173  7.82063802083333 13.2553956834532  7.568359375 13.2194244604317  C 7.31608072916667 13.1834532374101  7.135009765625 13.158273381295  7.025146484375 13.1438848920863  C 6.915283203125 13.1294964028777  6.69352213541667 13.091726618705  6.35986328125 13.0305755395683  C 6.02620442708333 12.9694244604317  5.82275390625 12.931654676259  5.74951171875 12.9172661870504  L 2.6611328125 14.2877697841727  L 3.5400390625 11.9352517985612  C 1.18001302083333 10.4748201438849  0 8.71223021582734  0 6.64748201438849  C 0 5.43165467625899  0.396728515625 4.31294964028777  1.190185546875 3.29136690647482  C 1.983642578125 2.26978417266187  3.057861328125 1.46582733812949  4.412841796875 0.879496402877698  C 5.767822265625 0.293165467625898  7.24690755208333 0  8.85009765625 0  C 10.2823893229167 0  11.6353352864583 0.237410071942447  12.908935546875 0.712230215827338  C 14.1825358072917 1.18705035971223  15.2486165364583 1.84352517985611  16.107177734375 2.68165467625899  Z M 23.956298828125 8.70323741007194  C 24.652099609375 9.5773381294964  25 10.5251798561151  25 11.5467625899281  C 25 12.3884892086331  24.7212727864583 13.1924460431655  24.163818359375 13.9586330935252  C 23.6063639322917 14.7248201438849  22.8515625 15.4208633093525  21.8994140625 16.0467625899281  L 22.57080078125 18  L 20.1416015625 16.8237410071942  C 18.9208984375 17.089928057554  18.0338541666667 17.2230215827338  17.48046875 17.2230215827338  C 16.1051432291667 17.2230215827338  14.8396809895833 16.9694244604317  13.68408203125 16.4622302158273  C 12.5284830729167 15.955035971223  11.6190592447917 15.2661870503597  10.955810546875 14.3956834532374  C 10.2925618489583 13.5251798561151  9.9609375 12.5755395683453  9.9609375 11.5467625899281  C 9.9609375 10.5179856115108  10.2925618489583 9.56834532374101  10.955810546875 8.69784172661871  C 11.6190592447917 7.8273381294964  12.5284830729167 7.13848920863309  13.68408203125 6.63129496402878  C 14.8396809895833 6.12410071942446  16.1051432291667 5.8705035971223  17.48046875 5.8705035971223  C 18.7906901041667 5.8705035971223  20.0236002604167 6.12410071942446  21.17919921875 6.63129496402878  C 22.3347981770833 7.13848920863309  23.260498046875 7.82913669064748  23.956298828125 8.70323741007194  Z " fill-rule="nonzero" fill="#02830f" stroke="none" transform="matrix(1 0 0 1 232 345 )" />
  </g>
</svg>