<?xml version="1.0" encoding="utf-8"?>
<svg version="1.1" xmlns:xlink="http://www.w3.org/1999/xlink" width="25px" height="18px" xmlns="http://www.w3.org/2000/svg">
  <g transform="matrix(1 0 0 1 -578 -345 )">
    <path d="M 8.54015616285555 14.3987603305785  C 8.91662018962633 14.2871900826446  9.20710169176427 14.0909090909091  9.41160066926938 13.8099173553719  C 9.60680423870608 13.5289256198347  9.65792898308236 13.2438016528926  9.56497490239822 12.9545454545455  C 9.47202082171407 12.6652892561983  9.26287414017475 12.4586776859504  8.93753485778026 12.3347107438017  C 8.62149098345417 12.2190082644628  8.28220858895705 12.2148760330579  7.9196876742889 12.3223140495868  C 7.55716675962075 12.4297520661157  7.27830451756832 12.6198347107438  7.08310094813162 12.8925619834711  C 6.87860197062651 13.1735537190083  6.81818181818182 13.4566115702479  6.90184049079755 13.7417355371901  C 6.98549916341327 14.0268595041322  7.18535043688418 14.2355371900826  7.50139431121026 14.3677685950413  C 7.81743818553635 14.5  8.16369213608477 14.5103305785124  8.54015616285555 14.3987603305785  Z M 10.4155047406581 12.5392561983471  C 10.5549358616843 12.4938016528926  10.6571853504369 12.4173553719008  10.7222532069158 12.3099173553719  C 10.7966164714631 12.202479338843  10.8128834355828 12.0929752066116  10.771054099275 11.9814049586777  C 10.7292247629671 11.8698347107438  10.6478899423685 11.7933884297521  10.5270496374791 11.7520661157025  C 10.3969139245213 11.7107438016529  10.2644543595464 11.7128099173554  10.1296709425544 11.7582644628099  C 9.99488752556237 11.8037190082645  9.89496188882692 11.8801652892562  9.82989403234802 11.9876033057851  C 9.67187209518498 12.2438016528926  9.73229224762967 12.4297520661157  10.0111544896821 12.5454545454545  C 10.1412902026399 12.5867768595041  10.2760736196319 12.5847107438017  10.4155047406581 12.5392561983471  Z M 13.1134969325153 11.2747933884298  C 13.555028815765 12.0227272727273  13.5666480758505 12.8099173553719  13.1483547127719 13.6363636363636  C 12.7300613496932 14.4793388429752  11.9957241122885 15.099173553719  10.9453430005577 15.495867768595  C 9.89496188882692 15.8925619834711  8.85387618516453 15.9421487603306  7.82208588957055 15.6446280991736  C 6.82747722625023 15.3636363636364  6.14194088120469 14.8409090909091  5.76547685443391 14.0764462809917  C 5.38901282766313 13.3119834710744  5.41922290388548 12.5371900826446  5.85610708310095 11.7520661157025  C 6.29299126231642 10.9834710743802  6.99711842349879 10.4090909090909  7.96848856664808 10.0289256198347  C 8.93985870979736 9.64876033057851  9.91820040899796 9.5702479338843  10.9035136642499 9.79338842975207  C 11.9353039598438 10.0330578512397  12.6719650492657 10.5268595041322  13.1134969325153 11.2747933884298  Z M 15.6511433351924 14.9318181818182  C 17.0129206172151 13.952479338843  17.6287414017475 12.8595041322314  17.4986056887897 11.6528925619835  C 17.414947016174 10.8595041322314  17.0013013571296 10.1570247933884  16.2576687116564 9.54545454545455  C 15.5140360661833 8.93388429752066  14.5449897750511 8.48347107438016  13.3505298382599 8.19421487603306  C 12.1560699014687 7.90495867768595  10.8802751440788 7.81818181818182  9.52314556609035 7.93388429752066  C 7.45026956683398 8.12396694214876  5.73294292619446 8.70867768595041  4.37116564417178 9.68801652892562  C 3.0093883621491 10.6673553719008  2.39356757761666 11.7603305785124  2.52370329057446 12.9669421487603  C 2.60736196319018 13.7603305785124  3.02100762223462 14.4628099173554  3.76464026770775 15.0743801652893  C 4.50827291318089 15.6859504132231  5.47731920431307 16.1363636363636  6.6717791411043 16.4256198347107  C 7.86623907789552 16.7148760330579  9.14203383528537 16.801652892562  10.4991634132738 16.6859504132231  C 12.5720394125302 16.495867768595  14.2893660531697 15.9111570247934  15.6511433351924 14.9318181818182  Z M 21.319018404908 10.2582644628099  C 21.6350622792341 10.6921487603306  21.7930842163971 11.1735537190083  21.7930842163971 11.702479338843  C 21.7930842163971 12.2644628099174  21.6211191671314 12.8409090909091  21.2771890686001 13.4318181818182  C 20.9332589700688 14.0227272727273  20.4266592303402 14.5888429752066  19.7573898494144 15.1301652892562  C 19.0881204684886 15.6714876033058  18.3049823387247 16.1570247933884  17.4079754601227 16.5867768595041  C 16.5109685815207 17.0165289256198  15.4605874697899 17.3595041322314  14.2568321249303 17.6157024793388  C 13.0530767800706 17.8719008264463  11.7958728388176 18  10.4852203011712 18  C 9.17456776352482 18  7.89644915411787 17.8615702479339  6.65086447295036 17.5847107438017  C 5.40527979178286 17.3078512396694  4.28750697155605 16.9235537190083  3.29754601226994 16.4318181818182  C 2.30758505298383 15.9400826446281  1.51050381111731 15.3161157024793  0.906302286670385 14.5599173553719  C 0.302100762223462 13.8037190082645  0 12.9793388429752  0 12.0867768595041  C 0 11.1363636363636  0.323015430377394 10.1239669421488  0.969046291132181 9.0495867768595  C 1.61507715188697 7.97520661157025  2.53299869864287 6.90909090909091  3.72281093139989 5.85123966942149  C 5.29373489496189 4.45454545454545  6.88092582264362 3.4793388429752  8.48438371444506 2.92561983471074  C 10.0878416062465 2.37190082644628  11.2335006506786 2.40082644628099  11.9213608477412 3.01239669421488  C 12.5255623721881 3.54132231404958  12.6185164528723 4.40495867768595  12.2002230897936 5.60330578512397  C 12.16304145752 5.71900826446281  12.1583937534858 5.80165289256198  12.186279977691 5.85123966942149  C 12.2141662018963 5.90082644628099  12.2606432422383 5.9297520661157  12.3257110987172 5.93801652892562  C 12.3907789551961 5.94628099173554  12.4581706636921 5.94421487603306  12.5278862242052 5.93181818181818  C 12.5976017847184 5.91942148760331  12.6603457891801 5.90495867768595  12.7161182375906 5.88842975206612  L 12.7997769102064 5.86363636363636  C 14.0918386317159 5.37603305785124  15.2351738241309 5.13223140495868  16.2297824874512 5.13223140495868  C 17.2243911507715 5.13223140495868  17.9354898680052 5.38429752066116  18.3630786391523 5.88842975206612  C 18.7813720022309 6.40909090909091  18.7813720022309 7.14462809917355  18.3630786391523 8.09504132231405  C 18.3444878230154 8.20247933884297  18.3235731548615 8.28512396694215  18.3003346346905 8.34297520661157  C 18.2770961145194 8.40082644628099  18.2980107826734 8.45247933884298  18.3630786391523 8.49793388429752  C 18.4281464956312 8.54338842975207  18.4839189440416 8.57438016528926  18.5303959843837 8.59090909090909  C 18.5768730247258 8.60743801652892  18.6558839933073 8.63223140495868  18.7674288901283 8.66528925619835  C 19.2972671500279 8.81404958677686  19.7759806655512 9.00826446280992  20.2035694366983 9.24793388429752  C 20.6311582078453 9.48760330578512  21.0029745305819 9.82438016528926  21.319018404908 10.2582644628099  Z M 19.3530395984384 3.15495867768595  C 19.9014686744748 3.30785123966942  20.3708867819297 3.57851239669421  20.7612939208031 3.96694214876033  C 21.1517010596765 4.35537190082645  21.4050009295408 4.80371900826446  21.521193530396 5.31198347107438  C 21.6373861312512 5.8202479338843  21.6071760550288 6.30578512396694  21.4305633017289 6.76859504132231  C 21.3562000371816 6.95867768595041  21.2190927681725 7.09917355371901  21.0192414947016 7.1900826446281  C 20.8193902212307 7.28099173553719  20.6125673917085 7.29752066115702  20.398773006135 7.2396694214876  C 20.1849786205614 7.17355371900826  20.0269566833984 7.05165289256198  19.9247071946458 6.87396694214876  C 19.8224577058933 6.69628099173554  19.8038668897565 6.51239669421487  19.8689347462354 6.32231404958678  C 20.0548429076036 5.80165289256198  19.9432980107827 5.34297520661157  19.5343000557724 4.94628099173554  C 19.1253021007622 4.5495867768595  18.6279977691021 4.40495867768595  18.042387060792 4.51239669421488  C 17.81929726715 4.55371900826446  17.6101505856107 4.52066115702479  17.414947016174 4.41322314049587  C 17.2197434467373 4.30578512396694  17.1035508458821 4.15289256198347  17.0663692136085 3.95454545454546  C 17.0198921732664 3.75619834710744  17.0570738055401 3.57231404958678  17.1779141104294 3.40289256198347  C 17.2987544153188 3.23347107438016  17.4707194645845 3.12809917355372  17.6938092582264 3.08677685950413  C 18.2515337423313 2.97933884297521  18.8046105224019 3.00206611570248  19.3530395984384 3.15495867768595  Z M 20.3848298940323 0.27892561983471  C 21.5095742703105 0.588842975206612  22.4762967094255 1.14462809917355  23.2849972113776 1.94628099173554  C 24.0936977133296 2.7396694214876  24.6165644171779 3.65909090909091  24.8535973229225 4.70454545454545  C 25.090630228667 5.75  25.0278862242052 6.74793388429752  24.6653653095371 7.69834710743802  C 24.5817066369214 7.92148760330579  24.4236846997583 8.08677685950413  24.191299498048 8.19421487603306  C 23.9589142963376 8.30165289256198  23.7172336865588 8.31818181818182  23.4662576687117 8.24380165289256  C 23.2152816508645 8.16942148760331  23.0293734894962 8.02892561983471  22.9085331846068 7.82231404958678  C 22.7876928797174 7.61570247933884  22.7644543595464 7.40082644628099  22.8388176240937 7.17768595041322  C 23.0990890500093 6.5  23.1455660903514 5.78925619834711  22.9782487451199 5.04545454545455  C 22.8109313998885 4.30165289256198  22.4391150771519 3.64876033057851  21.8627997769102 3.08677685950413  C 21.2864844766685 2.51652892561983  20.5986242796059 2.12190082644628  19.7992191857223 1.90289256198347  C 18.9998140918386 1.68388429752066  18.1957612939208 1.64876033057851  17.3870607919688 1.79752066115702  C 17.1267893660532 1.84710743801653  16.8851087562744 1.80785123966942  16.6620189626325 1.6797520661157  C 16.4389291689905 1.55165289256198  16.2994980479643 1.37190082644628  16.2437255995538 1.14049586776859  C 16.1879531511433 0.909090909090909  16.2321063394683 0.696280991735535  16.3761851645287 0.50206611570248  C 16.5202639895891 0.307851239669422  16.7224391150772 0.185950413223141  16.9827105409927 0.136363636363636  C 18.1260457334077 -0.0785123966942178  19.2600855177542 -0.0309917355371891  20.3848298940323 0.27892561983471  Z " fill-rule="nonzero" fill="#d9001b" stroke="none" transform="matrix(1 0 0 1 578 345 )" />
  </g>
</svg>