<?xml version="1.0" encoding="utf-8"?>
<svg version="1.1" xmlns:xlink="http://www.w3.org/1999/xlink" width="12px" height="12px" viewBox="530 225.5  12 12" xmlns="http://www.w3.org/2000/svg">
  <path d="M 536 225.5  C 539.36 225.5  542 228.14  542 231.5  C 542 234.86  539.36 237.5  536 237.5  C 532.64 237.5  530 234.86  530 231.5  C 530 228.14  532.64 225.5  536 225.5  Z " fill-rule="nonzero" fill="#ffffff" stroke="none" />
  <path d="M 536 226  C 539.08 226  541.5 228.42  541.5 231.5  C 541.5 234.58  539.08 237  536 237  C 532.92 237  530.5 234.58  530.5 231.5  C 530.5 228.42  532.92 226  536 226  Z " stroke-width="1" stroke="#797979" fill="none" />
  <path d="M 536 234.5  C 534.32 234.5  533 233.18  533 231.5  C 533 229.82  534.32 228.5  536 228.5  C 537.68 228.5  539 229.82  539 231.5  C 539 233.18  537.68 234.5  536 234.5  " fill-rule="nonzero" fill="#797979" stroke="none" />
</svg>