<?xml version="1.0" encoding="utf-8"?>
<svg version="1.1" xmlns:xlink="http://www.w3.org/1999/xlink" width="40px" height="40px" xmlns="http://www.w3.org/2000/svg">
  <defs>
    <mask fill="white" id="clip1">
      <path d="M 39.5249375212083 15.5882519968409  C 39.8339474463729 17.0035479241853  39.9975904106679 18.479400564763  39.9999728192663 20  L 31.8835714400651 20  L 39.5249375212083 15.5882519968409  Z M 37.286149792939 9.81676634205546  L 19.6475657192393 20  L 18.3532637425696 20  L 18.1176470588235 20  L 18.1176470588235 26.1176470588235  L 19 26.1176470616332  L 19 39.9359261705505  C 7.94929741948868 39.1217839971326  0 30.6448871012239  0 20  C 0 8.79999999999999  8.79999999999999 0  20 0  C 27.4539739759493 0  33.8449046859395 3.89782530851674  37.286149792939 9.81676634205546  Z M 24 39.5167825428129  L 24 26  L 39.0792351150315 26  C 36.9773368915216 32.8613425807145  31.4628265733757 37.9726769234929  24 39.5167825428129  Z " fill-rule="evenodd" />
    </mask>
  </defs>
  <g>
    <path d="M 39.5249375212083 15.5882519968409  C 39.8339474463729 17.0035479241853  39.9975904106679 18.479400564763  39.9999728192663 20  L 31.8835714400651 20  L 39.5249375212083 15.5882519968409  Z M 37.286149792939 9.81676634205546  L 19.6475657192393 20  L 18.3532637425696 20  L 18.1176470588235 20  L 18.1176470588235 26.1176470588235  L 19 26.1176470616332  L 19 39.9359261705505  C 7.94929741948868 39.1217839971326  0 30.6448871012239  0 20  C 0 8.79999999999999  8.79999999999999 0  20 0  C 27.4539739759493 0  33.8449046859395 3.89782530851674  37.286149792939 9.81676634205546  Z M 24 39.5167825428129  L 24 26  L 39.0792351150315 26  C 36.9773368915216 32.8613425807145  31.4628265733757 37.9726769234929  24 39.5167825428129  Z " fill-rule="nonzero" fill="#f2f2f2" stroke="none" />
    <path d="M 39.5249375212083 15.5882519968409  C 39.8339474463729 17.0035479241853  39.9975904106679 18.479400564763  39.9999728192663 20  L 31.8835714400651 20  L 39.5249375212083 15.5882519968409  Z " stroke-width="2" stroke="#797979" fill="none" mask="url(#clip1)" />
    <path d="M 37.286149792939 9.81676634205546  L 19.6475657192393 20  L 18.3532637425696 20  L 18.1176470588235 20  L 18.1176470588235 26.1176470588235  L 19 26.1176470616332  L 19 39.9359261705505  C 7.94929741948868 39.1217839971326  0 30.6448871012239  0 20  C 0 8.79999999999999  8.79999999999999 0  20 0  C 27.4539739759493 0  33.8449046859395 3.89782530851674  37.286149792939 9.81676634205546  Z " stroke-width="2" stroke="#797979" fill="none" mask="url(#clip1)" />
    <path d="M 24 39.5167825428129  L 24 26  L 39.0792351150315 26  C 36.9773368915216 32.8613425807145  31.4628265733757 37.9726769234929  24 39.5167825428129  Z " stroke-width="2" stroke="#797979" fill="none" mask="url(#clip1)" />
  </g>
</svg>